<svg xmlns="http://www.w3.org/2000/svg" viewBox="0 0 198.43 83.17"><defs><style>.cls-1{fill:#2a3436;}</style></defs><g id="Capa_2" data-name="Capa 2"><g id="Diseño"><path class="cls-1" d="M70.82,77.19l-1.14,0c-.17,0-.26,0-.26-.11s.11-.12.33-.16a.89.89,0,0,0,.48-.2.58.58,0,0,0,.17-.45V72.38a.75.75,0,0,0-.13-.47.66.66,0,0,0-.44-.17c-.21,0-.31-.08-.31-.18s.08-.09.25-.09h.92l1,0a2.83,2.83,0,0,1,1.47.3,1.11,1.11,0,0,1,.48,1,1.21,1.21,0,0,1-.14.6.94.94,0,0,1-.33.38,1.76,1.76,0,0,1-.42.24s0,0,0,0,0,0,0,0a1.62,1.62,0,0,1,1.13.83,1.41,1.41,0,0,1,.12.61,1.43,1.43,0,0,1-.33,1,2.14,2.14,0,0,1-.28.24,2.92,2.92,0,0,1-1.71.48Zm.26-3.58c0,.22.14.33.4.33a1.89,1.89,0,0,0,1-.26.81.81,0,0,0,.27-.28,1.31,1.31,0,0,0,.12-.62,1.35,1.35,0,0,0-.11-.52,1,1,0,0,0-.37-.4,1.33,1.33,0,0,0-.71-.17.72.72,0,0,0-.46.1.35.35,0,0,0-.12.3Zm0,2.63a.6.6,0,0,0,.17.49.81.81,0,0,0,.52.14,1.32,1.32,0,0,0,.67-.18,1.53,1.53,0,0,0,.5-.48,1.18,1.18,0,0,0,.2-.68,1.26,1.26,0,0,0-.24-.81,1.41,1.41,0,0,0-.61-.41,2.27,2.27,0,0,0-.71-.13.59.59,0,0,0-.38.11.26.26,0,0,0-.12.21Z"/><path class="cls-1" d="M79.24,77.19l-1.13,0c-.17,0-.25,0-.25-.11s.1-.11.29-.15a.71.71,0,0,0,.68-.74V75a1.35,1.35,0,0,0-.22-.65l-1-1.69c-.32-.5-.58-.79-.77-.85s-.3-.13-.3-.2.08-.09.25-.09l1,0,.7,0c.17,0,.25,0,.25.1s-.09.13-.28.18-.29.11-.29.22a.64.64,0,0,0,.12.31l.8,1.45c.14.22.22.33.25.33a5.7,5.7,0,0,0,1-1.55,1,1,0,0,0,.15-.45q0-.25-.36-.3L80,71.69c-.06,0-.1-.08-.1-.11s.09-.1.26-.1h.66l.91,0c.17,0,.25,0,.25.08s-.15.14-.46.23a.75.75,0,0,0-.35.22,16,16,0,0,0-1.4,2.16,2,2,0,0,0-.15.28,1,1,0,0,0,0,.22,2,2,0,0,0,0,.29v1.29a.67.67,0,0,0,.18.49.82.82,0,0,0,.5.24c.2,0,.31.1.31.16s-.09.11-.26.11Z"/><path class="cls-1" d="M92.7,77.17a5,5,0,0,1-1.39.15,2.63,2.63,0,0,1-1.11-.23,2.85,2.85,0,0,1-.9-.64,3.13,3.13,0,0,1-.82-2.12,2.65,2.65,0,0,1,.25-1.15,3,3,0,0,1,.7-.94,3.57,3.57,0,0,1,3.17-.76,3.45,3.45,0,0,0,.67.16s.08.06.1.18,0,.25.06.41,0,.3,0,.42v.27a.17.17,0,0,1,0,.08s0,.07-.09.06-.19-.12-.23-.32a1,1,0,0,0-.3-.64,1.8,1.8,0,0,0-1.33-.45,1.86,1.86,0,0,0-.84.2,2.39,2.39,0,0,0-.68.55,2.51,2.51,0,0,0-.45.8,2.75,2.75,0,0,0-.17,1,3.57,3.57,0,0,0,.27,1.38,2.57,2.57,0,0,0,.79,1.09,1.75,1.75,0,0,0,1.17.43A1.72,1.72,0,0,0,93.21,76a.28.28,0,0,1,.13-.11s.08,0,.09-.06h0s.06.05.06.16a2.14,2.14,0,0,1-.3,1A1.27,1.27,0,0,1,92.7,77.17Z"/><path class="cls-1" d="M97.17,77.18l-1.06.06c-.16,0-.25,0-.25-.12s.1-.14.29-.2a1.15,1.15,0,0,0,.75-.68c.56-1.28,1.11-2.65,1.64-4.12a1.17,1.17,0,0,0,.12-.4c0-.07,0-.11,0-.11a1,1,0,0,0,.36-.17l0-.06,0,0s0-.08.06-.08,0,0,.08.13c.22.68.46,1.4.72,2.18s.54,1.62.84,2.5a1.51,1.51,0,0,0,.38.65,1,1,0,0,0,.5.23c.2,0,.3.1.3.2s-.08.09-.25.09l-1.22-.06H99.6c-.17,0-.26,0-.26-.1s.1-.15.29-.17q.54-.09.54-.39a8.06,8.06,0,0,0-.34-1.38c0-.07-.09-.1-.23-.1H97.92c-.06,0-.11,0-.15.16a6.36,6.36,0,0,0-.35,1.21.39.39,0,0,0,.15.32.94.94,0,0,0,.4.2c.16,0,.25.1.25.16s-.09.1-.25.1ZM98,74.61s.06.07.19.07h1.35c.09,0,.13,0,.13-.05l0-.09L99,72.45c0-.11-.06-.16-.07-.16s0,0-.08.15L98,74.54Z"/><path class="cls-1" d="M110.36,77.07c0,.11-.07.19-.23.24a1.85,1.85,0,0,1-.48.07,1.61,1.61,0,0,1-.75-.19,2.62,2.62,0,0,1-.6-.45,6.83,6.83,0,0,1-.45-.55l-.32-.46-.22-.34a2.38,2.38,0,0,1-.17-.29,1.44,1.44,0,0,0-1.1-.56h0c-.07,0-.11.06-.11.18v1.51a.67.67,0,0,0,.59.75c.19,0,.29.09.29.15s-.09.11-.26.11h-.24l-.24,0-.38,0-1.14.07c-.17,0-.25,0-.25-.11s.1-.12.31-.16a.89.89,0,0,0,.47-.19.62.62,0,0,0,.15-.46V72.61a1.4,1.4,0,0,0-.11-.62.53.53,0,0,0-.41-.25c-.2,0-.31-.1-.31-.18s.09-.09.26-.09h.86l1,0c1.31,0,2,.48,2,1.44a1.62,1.62,0,0,1-1,1.47.05.05,0,0,0,0,0,0,0,0,0,0,0,0,.08.08,0,0,1,0,0c.14.19.25.36.33.48l.22.34c.07.09.14.19.22.28l.29.35c.11.14.23.28.35.41l.37.36a1,1,0,0,0,.43.24,2.35,2.35,0,0,0,.58,0C110.32,77,110.36,77,110.36,77.07ZM105.91,74c0,.13,0,.22.1.25a.78.78,0,0,0,.36.06,1.27,1.27,0,0,0,.69-.18,1.25,1.25,0,0,0,.46-.48,1.43,1.43,0,0,0,.17-.68,1.57,1.57,0,0,0-.25-.93,1.09,1.09,0,0,0-.93-.35.58.58,0,0,0-.45.13.58.58,0,0,0-.12.35c0,.28,0,.58,0,.88S105.91,73.67,105.91,74Z"/><path class="cls-1" d="M117.84,76.38a2.61,2.61,0,0,1-.93.68,3,3,0,0,1-1.26.25,2.87,2.87,0,0,1-1.12-.22,3,3,0,0,1-1.6-1.56,2.87,2.87,0,0,1-.23-1.14A3.33,3.33,0,0,1,113,72.9a2.81,2.81,0,0,1,1-1.1,3,3,0,0,1,1.65-.43,3,3,0,0,1,1.11.21,2.82,2.82,0,0,1,.92.6,2.93,2.93,0,0,1,.62.92,2.88,2.88,0,0,1,.23,1.15A3.14,3.14,0,0,1,117.84,76.38Zm-4.29-2.17a3.22,3.22,0,0,0,.16,1,3,3,0,0,0,.47.89,2.29,2.29,0,0,0,.71.61,1.7,1.7,0,0,0,.88.23,1.77,1.77,0,0,0,1.47-.65,3,3,0,0,0,.51-1.87,3.72,3.72,0,0,0-.26-1.43,2.22,2.22,0,0,0-.72-1,1.85,1.85,0,0,0-1.13-.35,1.92,1.92,0,0,0-1.12.33,2,2,0,0,0-.72.89A3.11,3.11,0,0,0,113.55,74.21Z"/><path class="cls-1" d="M130.11,77.17a5.05,5.05,0,0,1-1.39.15,2.63,2.63,0,0,1-1.11-.23,2.85,2.85,0,0,1-.9-.64,3.08,3.08,0,0,1-.83-2.12,2.65,2.65,0,0,1,.26-1.15,3,3,0,0,1,.7-.94,3.29,3.29,0,0,1,2.24-.86,3.15,3.15,0,0,1,.93.1,3.53,3.53,0,0,0,.66.16c.05,0,.08.06.11.18a3.53,3.53,0,0,1,.05.41,3.44,3.44,0,0,1,0,.42v.27s0,.06,0,.08,0,.07-.09.06-.19-.12-.23-.32a1,1,0,0,0-.3-.64,2.05,2.05,0,0,0-2.17-.25,2.39,2.39,0,0,0-.68.55,2.53,2.53,0,0,0-.46.8,3,3,0,0,0-.16,1,3.76,3.76,0,0,0,.26,1.38,2.65,2.65,0,0,0,.79,1.09,1.75,1.75,0,0,0,1.18.43A1.73,1.73,0,0,0,130.62,76a.32.32,0,0,1,.12-.11c.06,0,.09,0,.1-.06h0s.06.05.06.16a2.27,2.27,0,0,1-.3,1A1.27,1.27,0,0,1,130.11,77.17Z"/><path class="cls-1" d="M134.57,77.18l-1,.06c-.17,0-.25,0-.25-.12s.09-.14.29-.2a1.15,1.15,0,0,0,.75-.68c.56-1.28,1.1-2.65,1.64-4.12a1.09,1.09,0,0,0,.11-.4.5.5,0,0,1,0-.11,1,1,0,0,0,.37-.17l.05-.06a.08.08,0,0,0,0,0s.05-.08.06-.08.06,0,.09.13c.22.68.46,1.4.72,2.18s.54,1.62.84,2.5a1.52,1.52,0,0,0,.37.65,1.09,1.09,0,0,0,.51.23c.2,0,.3.1.3.2s-.09.09-.26.09l-1.22-.06H137c-.17,0-.25,0-.25-.1s.09-.15.29-.17c.35-.06.53-.19.53-.39a7.61,7.61,0,0,0-.33-1.38c0-.07-.1-.1-.24-.1h-1.67c-.07,0-.12,0-.15.16a6.36,6.36,0,0,0-.35,1.21.42.42,0,0,0,.14.32,1,1,0,0,0,.4.2c.17,0,.26.1.26.16s-.09.1-.26.1Zm.83-2.57s.06.07.18.07h1.36c.08,0,.12,0,.12-.05v-.09l-.7-2.09c0-.11,0-.16-.07-.16s0,0-.07.15l-.79,2.1Zm.94-3.61a.38.38,0,0,1-.16.08s-.05,0-.05-.06a5.73,5.73,0,0,1,.71-1.17.28.28,0,0,1,.22-.11l.22,0,.22.07c.06,0,.09.07.09.1a.3.3,0,0,1-.11.18l-.48.39Z"/><path class="cls-1" d="M147.77,77.07c0,.11-.08.19-.23.24a2,2,0,0,1-.48.07,1.61,1.61,0,0,1-.75-.19,2.62,2.62,0,0,1-.6-.45,5.36,5.36,0,0,1-.46-.55c-.12-.19-.23-.34-.31-.46s-.16-.24-.23-.34l-.17-.29a1.41,1.41,0,0,0-1.09-.56h0c-.08,0-.11.06-.11.18v1.51a.67.67,0,0,0,.58.75c.2,0,.29.09.29.15s-.08.11-.25.11h-.25l-.23,0-.38,0-1.14.07c-.17,0-.26,0-.26-.11s.11-.12.32-.16a.89.89,0,0,0,.47-.19.62.62,0,0,0,.14-.46V72.61a1.42,1.42,0,0,0-.1-.62.53.53,0,0,0-.41-.25c-.21,0-.31-.1-.31-.18s.09-.09.25-.09h.86l1,0q2,0,2,1.44a1.62,1.62,0,0,1-1,1.47.05.05,0,0,0,0,0,0,0,0,0,0,0,0s0,0,0,0c.14.19.24.36.32.48l.23.34.21.28.29.35.36.41c.12.12.24.25.37.36a1,1,0,0,0,.43.24,2.35,2.35,0,0,0,.58,0C147.73,77,147.77,77,147.77,77.07ZM143.32,74c0,.13,0,.22.1.25a.78.78,0,0,0,.36.06,1.27,1.27,0,0,0,1.15-.66,1.43,1.43,0,0,0,.17-.68,1.65,1.65,0,0,0-.25-.93,1.1,1.1,0,0,0-.94-.35.55.55,0,0,0-.44.13.58.58,0,0,0-.12.35c0,.28,0,.58,0,.88Z"/><path class="cls-1" d="M156,74.2a3.1,3.1,0,0,1-.23,1.18A3.14,3.14,0,0,1,154.15,77a3,3,0,0,1-1.19.24h-.19l-.53,0-1.1,0-.92,0c-.17,0-.26,0-.26-.11s.11-.12.32-.16a.72.72,0,0,0,.43-.19.65.65,0,0,0,.13-.46V72.38a.59.59,0,0,0-.13-.44.72.72,0,0,0-.43-.2c-.21,0-.32-.1-.32-.18s.09-.09.26-.09h1l1.5-.07a4.43,4.43,0,0,1,1.87.35,2.43,2.43,0,0,1,1.09,1A2.9,2.9,0,0,1,156,74.2Zm-4.47,1.93a.7.7,0,0,0,.18.52.9.9,0,0,0,.48.23,2.78,2.78,0,0,0,.66.07,2.24,2.24,0,0,0,1.21-.33,2.29,2.29,0,0,0,.82-.92,3.18,3.18,0,0,0,.29-1.38,2.79,2.79,0,0,0-.2-1.07,2.46,2.46,0,0,0-1.33-1.38,3.12,3.12,0,0,0-1.92-.06.48.48,0,0,0-.19.41Z"/><path class="cls-1" d="M160,77.18l-1,.06c-.17,0-.26,0-.26-.11s.11-.12.32-.16a.89.89,0,0,0,.47-.19.62.62,0,0,0,.15-.46V72.38a.64.64,0,0,0-.12-.44.75.75,0,0,0-.44-.2c-.21,0-.31-.1-.31-.18s.08-.09.25-.09l1.55,0,1.95,0c.1,0,.15,0,.16.07.08.48.13.77.13.87s0,.17-.12.17-.08,0-.1-.09a2.94,2.94,0,0,0-.17-.43.52.52,0,0,0-.22-.22.82.82,0,0,0-.39-.07h-1.15a.32.32,0,0,0-.2.09.23.23,0,0,0-.12.19v1.86a.24.24,0,0,0,.05.14.14.14,0,0,0,.11.06h.84a.54.54,0,0,0,.54-.35.36.36,0,0,1,.07-.09s.07-.06.1-.06l.06,0a.13.13,0,0,1,0,.1l0,.49,0,.59c0,.1,0,.15-.08.15s-.15-.07-.2-.2-.22-.39-.4-.39h-.82a.43.43,0,0,0-.23,0,.22.22,0,0,0-.07.18V76.3a.49.49,0,0,0,.58.58h.91a1.61,1.61,0,0,0,.5-.06.66.66,0,0,0,.29-.21,2.36,2.36,0,0,0,.25-.44.16.16,0,0,1,.13-.08c.07,0,.11,0,.11.09a3.18,3.18,0,0,1,0,.4c0,.15-.07.32-.11.51s-.07.15-.13.15Z"/><path class="cls-1" d="M171.2,77.12c0,.15-.06.22-.18.22a.73.73,0,0,1-.31-.15,1.48,1.48,0,0,1-.42-.44l-.89-1.1L167.18,73c-.07-.1-.13-.14-.18-.14s-.08.06-.08.18c0,.73,0,1.36,0,1.91s0,1,0,1.38a.63.63,0,0,0,.56.7c.19,0,.29.09.29.15s-.09.11-.26.11l-.82,0-.8,0c-.17,0-.25,0-.25-.11s.08-.11.25-.14a.46.46,0,0,0,.28-.17.79.79,0,0,0,.18-.29,1.48,1.48,0,0,0,.09-.28,32.19,32.19,0,0,0,.15-3.5.87.87,0,0,0-.21-.64,1.43,1.43,0,0,0-.57-.33q-.36-.12-.36-.24t.21-.12l1.35,0c.05,0,.12,0,.21.14l.21.29c.13.15.28.35.47.59l.62.78c.22.28.45.56.67.85s.44.54.63.79.35.44.49.6l.24.3c.1.12.18.19.23.19s.08-.06.08-.18,0-.52,0-1V72.25a.43.43,0,0,0-.17-.31.71.71,0,0,0-.4-.19c-.15,0-.23-.09-.23-.16s.09-.1.26-.1h.5l1,0c.17,0,.25,0,.25.09s-.1.14-.31.18a.84.84,0,0,0-.41.16.6.6,0,0,0-.12.41c0,.11,0,.56,0,1.37Z"/><path class="cls-1" d="M175.63,77.18l-1,.06c-.17,0-.26,0-.26-.12s.1-.14.29-.2a1.19,1.19,0,0,0,.76-.68c.55-1.28,1.1-2.65,1.63-4.12a1.17,1.17,0,0,0,.12-.4c0-.07,0-.11,0-.11a1.16,1.16,0,0,0,.37-.17l0-.06,0,0s.05-.08.06-.08.06,0,.09.13c.21.68.45,1.4.71,2.18s.54,1.62.85,2.5a1.42,1.42,0,0,0,.37.65,1.05,1.05,0,0,0,.5.23c.2,0,.3.1.3.2s-.08.09-.25.09L179,77.18h-.92c-.17,0-.26,0-.26-.1s.1-.15.29-.17q.54-.09.54-.39a7.13,7.13,0,0,0-.34-1.38c0-.07-.09-.1-.23-.1h-1.68c-.06,0-.11,0-.15.16a6.36,6.36,0,0,0-.35,1.21.39.39,0,0,0,.15.32.94.94,0,0,0,.4.2c.17,0,.25.1.25.16s-.08.1-.25.1Zm.82-2.57s.06.07.19.07H178c.08,0,.12,0,.12-.05l0-.09-.69-2.09c0-.11-.06-.16-.07-.16s-.05,0-.08.15l-.79,2.1Z"/><path class="cls-1" d="M186.23,75.79a1.5,1.5,0,0,1-.2.75,1.47,1.47,0,0,1-.61.57,2.07,2.07,0,0,1-1,.22,2.8,2.8,0,0,1-1.18-.21.35.35,0,0,1-.18-.15,2.38,2.38,0,0,1-.16-1,.32.32,0,0,1,.06-.16.15.15,0,0,1,.13-.09s.13.19.26.58a1.1,1.1,0,0,0,1.18.75,1,1,0,0,0,.71-.27,1,1,0,0,0,.26-.74c0-.49-.44-1-1.33-1.63a3.53,3.53,0,0,1-.82-.72,1.4,1.4,0,0,1-.29-.91,1.17,1.17,0,0,1,.22-.68,1.91,1.91,0,0,1,.63-.52,2.06,2.06,0,0,1,.91-.2,2.41,2.41,0,0,1,.73.09,1.43,1.43,0,0,0,.31.08c.06,0,.11.06.14.17a3.25,3.25,0,0,1,.07.38c0,.15,0,.27,0,.38s0,.23-.06.23a.29.29,0,0,1-.31-.24.9.9,0,0,0-.33-.59,1.05,1.05,0,0,0-.67-.21,1,1,0,0,0-.69.26.86.86,0,0,0-.3.69.84.84,0,0,0,.19.5,2.47,2.47,0,0,0,.47.44l.51.35A2.39,2.39,0,0,1,186.23,75.79Z"/><path class="cls-1" d="M57.4,5.17A47.39,47.39,0,0,0,39,9.27a1.55,1.55,0,0,1-.57.12h-.12c.32-.88.56-1.76.88-2.64a.29.29,0,0,1,.32-.32h.18c.51,0,.58-.5.64-.88L41.27.82V.5c0-.37-.19-.5-.7-.5h-.18a.81.81,0,0,0-.82.57,5,5,0,0,0-.5,1.07c-.88,2.65-1.77,5.29-2.59,7.94a2.75,2.75,0,0,1-1.32,1.57C27.67,15.26,19.62,22.8,15.69,31.29l-.35-.47c-.3-.38-.61-.7-.88-1-.53-.6-1-1.07-1.25-1.38a0,0,0,0,0,0,0,.25.25,0,0,0,0-.13.17.17,0,0,0,.13.18.21.21,0,0,0,.25-.14v0s.12-.46.28-1.32a19.33,19.33,0,0,0,.25-3.54,17.9,17.9,0,0,0-.86-5,6,6,0,0,0-.56-1.34,1.47,1.47,0,0,0-1.49-.73l-.24.09,0,0-.07,0-.07.05a1.69,1.69,0,0,0-.32.35c-.15.23-.25.46-.36.64a.59.59,0,0,1-.3.28.75.75,0,0,1-.48-.15,2.79,2.79,0,0,0-.75-.33,2.23,2.23,0,0,0-.89,0,2.6,2.6,0,0,0-1.45.91,2.92,2.92,0,0,0-.24.37,2.49,2.49,0,0,0-.68-.21,3.36,3.36,0,0,0-1.15,0,1.72,1.72,0,0,0-.7.24,1.63,1.63,0,0,0-.54.63,3.07,3.07,0,0,1-.87,1.28,16,16,0,0,0-1.68.86A1.34,1.34,0,0,0,0,22.56a2.54,2.54,0,0,0,.38,1.07,9.92,9.92,0,0,0,1.26,1.55.48.48,0,0,0-.21.06,1.81,1.81,0,0,0-.53.49,2.24,2.24,0,0,0-.43,1,2.73,2.73,0,0,0,0,.7,1.5,1.5,0,0,0,.08.39A1.2,1.2,0,0,1,.61,28l.09.19a6.27,6.27,0,0,1,.29.56,1,1,0,0,1,0,.49,12.9,12.9,0,0,0-.37,1.63,1.52,1.52,0,0,0,0,.29l0,.17,0,.1A1.62,1.62,0,0,0,1,32a2,2,0,0,0,.94.58,4.74,4.74,0,0,0,1.93.11,11.56,11.56,0,0,0,3.47-1c1-.46,2-.94,2.77-1.35s1.48-.72,2-.9c.29-.13.5-.2.62-.25l.9,1.31.74,1.07c.23.37.47.77.73,1.18a26.3,26.3,0,0,0-1,3,8.21,8.21,0,0,0-1.81-1.22,4,4,0,0,0-1.84-.42,2.55,2.55,0,0,0-1,.21,1.36,1.36,0,0,0-.79.86,1.5,1.5,0,0,0,.21,1.13,3.89,3.89,0,0,0,.25.4c.1.13.19.26.29.37a10.63,10.63,0,0,0,1.31,1.29c.9.75,1.79,1.44,2.66,2.12l0,0c.16,2.07,1.21,3.76,3.62,3.94h.31a7.56,7.56,0,0,0,1.06-.08c1.3,1,2.41,1.76,3.2,2.31.17.13.33.23.48.33.24.71.49,1.42.7,2.15.58,1.67.94,3.43,1.4,5.17.23,1.31.5,2.61.69,3.91.07.47.13.93.18,1.4a.06.06,0,0,1,0,0c-.06-.2-.11-.39-.18-.6a2.58,2.58,0,0,0-.08-.26,33.82,33.82,0,0,0-3-6.31,34.93,34.93,0,0,0-2.29-3.4,5.31,5.31,0,0,0-1.71-1.42,2.34,2.34,0,0,0-1.18-.24,1.55,1.55,0,0,0-.31,0l-.28.07a1.78,1.78,0,0,0-.58.3,3,3,0,0,0-1.14,2,4.8,4.8,0,0,0,.19,2.26,10.6,10.6,0,0,0,2.17,3.6c.87,1,1.78,1.92,2.58,2.81s1.55,1.73,2.21,2.54c1,1.26,1.89,2.4,2.54,3.31q-.47,3.73-.78,7.5c-.25,2.46-.45,4.84-.69,7.3-.06.76-.13,1.52-.13,2.21l.07.88a1,1,0,0,0,.25.68.84.84,0,0,0,.61.2h.26c.7,0,.95-.25,1.08-1.13l1.13-8.64c.29-.5.65-1.07,1.09-1.68s1.16-1.47,1.87-2.29c1.42-1.64,3.27-3.41,5-5.6.43-.55.85-1.11,1.26-1.73.21-.3.39-.61.57-.92a8.18,8.18,0,0,0,.52-1,7.88,7.88,0,0,0,.74-2.16A5.85,5.85,0,0,0,37,56.87a2.65,2.65,0,0,0-.34-1.23,1.7,1.7,0,0,0-1.13-.76,2.24,2.24,0,0,0-1.28.14,4.5,4.5,0,0,0-1.72,1.56,38.05,38.05,0,0,0-2.33,3.56A42.76,42.76,0,0,0,26.94,67c-.16.46-.31.89-.45,1.31.8-5.71,1.79-11.39,3.06-17,.06-.5.13-.56.44-.56h.38c.63.06,1.26.12,1.89.12h.44c9.07,0,21.93-6.93,28.8-12.23,6-4.6,13.92-13.23,13.92-21.29C75.42,8.32,64.77,5.17,57.4,5.17ZM.87,23.32c-.37-.51-.5-1.12-.1-1.48s1.06-.48,1.6-.86a3.47,3.47,0,0,0,1-1.43A1.52,1.52,0,0,1,3.74,19a1.49,1.49,0,0,1,.55-.18,3.39,3.39,0,0,1,1,0,2.19,2.19,0,0,1,.59.2,3.57,3.57,0,0,0,0,2.35,7.77,7.77,0,0,0,1.45,2.38,20.85,20.85,0,0,0,4.43,4l.27.17-.81-.09c-.58-.08-1.43-.17-2.42-.34a17,17,0,0,1-3.28-.86,11.39,11.39,0,0,1-3.36-1.93A7.8,7.8,0,0,1,.87,23.32Zm11.06,5.73c-.49.21-1.18.53-2,.92s-1.75.86-2.79,1.24a9.82,9.82,0,0,1-3.32.72,4.51,4.51,0,0,1-1.6-.19,1.2,1.2,0,0,1-.51-.35.43.43,0,0,1-.11-.21l0-.1v0a.47.47,0,0,1,0-.12c0-.41.28-.9.39-1.51a1.87,1.87,0,0,0-.09-1,3.31,3.31,0,0,0-.38-.66,1.69,1.69,0,0,1-.24-.92,2.1,2.1,0,0,1,.16-.77,1.56,1.56,0,0,1,.27-.41l0,0A.2.2,0,0,0,2,25.46a11.1,11.1,0,0,0,3.26,2.09,13,13,0,0,0,6.05.95c.55,0,.87-.09.93-.1l0,0,.26.39Zm.25-1.77A32.16,32.16,0,0,1,9.67,24.9c-.5-.52-1-1.08-1.54-1.73a7,7,0,0,1-1.3-2.05A2.61,2.61,0,0,1,7,18.85a1.61,1.61,0,0,1,.93-.63,1.32,1.32,0,0,1,1.12.21,1.43,1.43,0,0,0,.92.17,1.17,1.17,0,0,0,.78-.63c.13-.24.21-.46.31-.63s.13-.17.15-.2l.07-.06h0l.1,0a.89.89,0,0,1,.9.45,5.74,5.74,0,0,1,.54,1.2,15.88,15.88,0,0,1,.92,4.8,16.41,16.41,0,0,1-.23,3.46c-.16.82-.3,1.29-.3,1.29a.2.2,0,0,0-.05-.09ZM27.33,67.1a37.49,37.49,0,0,1,3.26-6.7A39.54,39.54,0,0,1,33,57a3.71,3.71,0,0,1,1.49-1.31A1.23,1.23,0,0,1,36,56a3,3,0,0,1,.1,1.88,6.56,6.56,0,0,1-.71,1.92,7.46,7.46,0,0,1-.52.9,9.51,9.51,0,0,1-.57.88c-.38.57-.8,1.11-1.22,1.63-.85,1.05-1.75,2-2.6,2.94S28.8,68,28.09,68.84c-.42.48-.79,1-1.14,1.45.55-1.07,1.23-2.46,2-3.83.4-.7.82-1.39,1.25-2s.88-1.18,1.26-1.65.72-.85,1-1.1l.39-.41h0a.18.18,0,0,0,0-.25.19.19,0,0,0-.26,0l-1.36,1.53c-.79.92-1.82,2.21-2.79,3.54a23.14,23.14,0,0,0-1.3,2l-.43.78C26.88,68.36,27.09,67.74,27.33,67.1Zm-8-38.3A44.67,44.67,0,0,1,34.47,13.23c.18-.12.44-.24.62-.38h.2V13a3.55,3.55,0,0,1-.2.81c-2.26,7.06-4.34,14.12-6,21.3-.34,1.62-4.08,4.67-7.36,6.56l-.15-.35c-.16-.39-.33-.77-.49-1.14s-.35-.73-.52-1.08c-.37-.71-.72-1.39-1.07-2.05s-.75-1.26-1.11-1.85S17.7,34,17.35,33.51l-.23-.3A39.41,39.41,0,0,1,19.34,28.8ZM30.8,37.39l-.21-.08a2.87,2.87,0,0,1,.47-1C31,36.71,30.88,37.05,30.8,37.39ZM16.45,35,17,36c.33.59.69,1.18,1,1.82s.66,1.33,1,2c.17.34.36.68.53,1s.32.73.48,1.1l.09.22c-.3-.38-.62-.76-1-1.17-1-1.12-2.12-2.31-3.37-3.58A17.19,17.19,0,0,1,16.45,35Zm3.08,9.13-.84-.68-.33-.26-1.9-1.52-.8-.62-1.73-1.32-.54-.42c-.7-.54-1.42-1.09-2.16-1.64A9.48,9.48,0,0,1,10,36.53c-.34-.39-.74-.93-.65-1.19a.69.69,0,0,1,.38-.4,1.82,1.82,0,0,1,.72-.17,3.21,3.21,0,0,1,1.54.29,7.85,7.85,0,0,1,1.91,1.27c.26.21.51.45.75.67l1.06,1c1.18,1.16,2.24,2.28,3.15,3.3q.62.68,1.11,1.29c.29.35.56.69.81,1a.49.49,0,0,1,0,.11s0,0,0,0,0,0,0,0l-1.16-1c-.73-.64-1.54-1.35-2.34-2.07-.58-.5-1.15-1-1.71-1.47L15.38,39c-.63-.5-1.22-1-1.75-1.34,0,0,0,0,0,0a14.21,14.21,0,0,0-1.82-1.11.23.23,0,0,0-.21,0,.2.2,0,0,0,0,.27,16.62,16.62,0,0,0,1.57,1.46l.33.27c.42.34.89.7,1.4,1.09l.7.52,1.33,1c.81.58,1.6,1.18,2.31,1.75h0c.42.33.83.65,1.18,1l.23.19.5.41.53,1.44C21.09,45.41,20.37,44.81,19.53,44.12Zm4.68,4.6a52.69,52.69,0,0,0-1.63-5.07c-.08-.2-.16-.41-.25-.61a25.69,25.69,0,0,0,5-3.4,3.59,3.59,0,0,1,.38-.32c-.22.32-.42.66-.62,1a16.69,16.69,0,0,0-1.72,4.83,18.25,18.25,0,0,0-.33,2.32c0,.24-.05.46-.06.69a35.66,35.66,0,0,0,0,3.58C24.73,50.72,24.51,49.71,24.21,48.72Zm1.27,5.35s0,0,0,.08a41.29,41.29,0,0,1-.06-5.67c0-.35,0-.69.07-1,.08-.74.19-1.48.34-2.21a15.11,15.11,0,0,1,1.79-4.65c.13-.22.28-.44.42-.65a11.34,11.34,0,0,1,1.06-1.32,2.14,2.14,0,0,1,.87-.65.82.82,0,0,1,.44,0,1.34,1.34,0,0,1,.24.12l.14.12a3,3,0,0,1,.62,2.09,7.8,7.8,0,0,1-.44,2.36A23.86,23.86,0,0,1,30,45c-.36.76-.74,1.5-1.15,2.24-.71,1.29-1.44,2.59-2.11,3.94.21-1,.44-2.08.7-3.19a29.88,29.88,0,0,1,1.28-4.12c.42-1.1.78-1.81.78-1.81h0a.18.18,0,0,0-.09-.24.19.19,0,0,0-.24.1l-.21.5c-.14.33-.33.78-.57,1.33-.45,1.09-1,2.57-1.57,4.07-.23.69-.47,1.38-.63,2.06l-.05.17a17.6,17.6,0,0,0-.42,2,10.27,10.27,0,0,0-.12,1.38c0,.19-.07.39-.1.6Zm-3.27,6.45c-.66-.84-1.39-1.72-2.21-2.64s-1.74-1.78-2.58-2.75a10.37,10.37,0,0,1-2.07-3.27A3.9,3.9,0,0,1,15.14,50a2.25,2.25,0,0,1,.78-1.57,1.33,1.33,0,0,1,.35-.2l.21-.06a1.46,1.46,0,0,1,.22,0,1.77,1.77,0,0,1,.86.15,4.6,4.6,0,0,1,1.5,1.2,36.24,36.24,0,0,1,2.35,3.26,28.39,28.39,0,0,1,1.8,3.3,26.71,26.71,0,0,1,1.26,3.14c.07.18.12.36.17.53a22.15,22.15,0,0,1,.58,2.21c0,.13.05.24.07.35,0,.47.06.93.08,1.39-.12-.35-.29-.78-.5-1.27-.13-.3-.29-.62-.46-.95s-.41-.78-.65-1.18c-.43-.77-1-1.55-1.47-2.32-1.09-1.53-2.21-3-3.09-4.12L17.72,52h0a.18.18,0,0,0-.27.24l.43.48c.27.3.62.76,1.05,1.31s.92,1.19,1.4,1.92,1,1.51,1.42,2.31c.92,1.6,1.75,3.25,2.41,4.46l.07.14c.62,1.14,1.1,1.87,1.1,1.87a.26.26,0,0,0,.11.07c0,.2,0,.39,0,.59-.1-.19-.22-.4-.36-.64-.25-.43-.54-.93-.9-1.48C23.65,62.48,23,61.53,22.21,60.52Zm37.15-22.4c-6.5,5-18.21,11.59-26.79,11.85H32.2a13.83,13.83,0,0,1-1.58-.12c-.57-.07-.69-.14-.69-.44A1.51,1.51,0,0,1,30,49c.28-1.19.57-2.38.85-3.57l0,0a20.92,20.92,0,0,0,.92-2.43,8.55,8.55,0,0,0,.39-2.63c0-.14,0-.28,0-.43.41-1.75.83-3.51,1.24-5.26a4.54,4.54,0,0,1,1-2c3.47-4,8.38-10.58,8.38-16.19,0-1.32-.31-3.53-2-3.78-.19,0-.38-.06-.5-.06a2,2,0,0,0-1.83.94,13.46,13.46,0,0,0-1.2,2.33,79.56,79.56,0,0,0-3.21,9.45c-.63,2.15-1.2,4.35-1.83,6.49-.13.44-.19.88-.63,1.14a.42.42,0,0,1-.06-.26,3.06,3.06,0,0,1,.19-.75c1.63-6.74,3.65-13.36,5.73-19.92a1.42,1.42,0,0,1,.76-.94c5.92-2.84,12.47-4.85,19.09-4.85S73,9.14,73,17.08,65.22,33.58,59.36,38.12Zm-24.14-9.7c.19-2.27,3.78-12.41,5-13.93a5.36,5.36,0,0,1,.31,2v1c-.5,4-2.7,7.44-4.91,10.65C35.47,28.23,35.41,28.42,35.22,28.42Z"/><path class="cls-1" d="M58.42,55.7c-.63,0-1.13-.19-1.19-.75,0-4.54,5.23-10.27,7.56-12.17a2.85,2.85,0,0,1,1.76-.56c1.83,0,2.15,2,2.33,3.4a4,4,0,0,1,2.34-1.2c.88,0,1.19.19,1.19.51a1.73,1.73,0,0,1-.12.44c-.76,1.51-3.15,6.11-2.59,7.75a.57.57,0,0,0,.51.31.39.39,0,0,0,.25-.06c2.58-.94,10.65-5.92,11.91-5.92h.31c.32.06.38.12.38.19,0,.25-.82.69-1.45,1.07-1.76,1.07-8.31,5-11,5.42a6.11,6.11,0,0,1-1,.06c-1.58,0-2-.69-2-1.64a13.58,13.58,0,0,1,1-3.46c.12-.19,0-.26-.26-.26a1.29,1.29,0,0,0-.94.38C65.8,50.91,60.94,55.7,58.42,55.7Zm.82-.94c1,0,6.62-5.74,6.94-6.12.94-1.32,1.07-5.48.12-5.29C59.5,49.65,59.24,54.06,59.24,54.76Z"/><path class="cls-1" d="M89.36,57.59c0,3.09-6.24,5.8-8.69,5.8a2.5,2.5,0,0,1-.7-.06c-1.7-.44-1.51-1.45-.44-2.59A35.92,35.92,0,0,1,86,55.32c.32-.19.44-.31.44-.44s-.19-.31-.5-.63c-1.64-1.82-4.22-4.22-4.22-6.8,0-2.77,3.21-5.17,5.86-5.17a2.32,2.32,0,0,1,1.45.5c.25.13.44.26.44.51v.06a.23.23,0,0,1-.26.25c-.06,0-.12-.06-.18-.06H88.6A4.72,4.72,0,0,0,83.82,48C83.82,51.8,89.36,54.19,89.36,57.59Zm-1.83-.38a3.09,3.09,0,0,0-.12-.63h-.13a33.83,33.83,0,0,0-6.17,5c-.26.26-.26.26-.26.63,1.9-.56,5.55-2,6.37-4A2.15,2.15,0,0,0,87.53,57.21Z"/><path class="cls-1" d="M96.54,37.49a1.07,1.07,0,0,0,1-.75c1-2.65,4.85-12.23,6.43-14.43a1.77,1.77,0,0,1,1.45-.7c.5,0,.88.25.88.7v.12A5.37,5.37,0,0,1,106,23.5c-1.33,4.29-2.84,8.57-4.6,12.73a2.36,2.36,0,0,0-.32,1c5.55-.32,11.15-.57,16.7-.57a31.26,31.26,0,0,1,7.24.57c.19.06.32.19.32.31s-.19.32-.63.32a1.58,1.58,0,0,1-.5-.06,29.74,29.74,0,0,0-4.79-.32c-1.39,0-2.84.06-4.22.13-2.46,0-4.86.06-7.25.19s-4.6.25-6.93.31c-.51.06-.57.32-.76.69-1.07,2.15-2.9,6.12-4,8.32C94.78,49.9,93.65,55.2,94.78,58c.38,1,.82,1.39,1.57,1.39,1.83,0,1.33.75.38.88-8,0-1.38-17.27-.25-20.8a1.71,1.71,0,0,0,.25-.81v-.19h-.5c-.76,0-1.51.06-2.27.12-2.27.13-4.54.19-6.87.32h-.25c-1,0-1.26-.19-1.26-.38a.41.41,0,0,1,.31-.32,1.85,1.85,0,0,0,.57-.06C89.8,37.93,93.14,37.68,96.54,37.49Zm2.59-.31c.63-.57,2.9-6.24,3.15-7.82C101.08,32,100,34.59,99.13,37.18Z"/><path class="cls-1" d="M102.47,47.89c0-.51.5-.63.82-.82.5-.25,2.89-3.66,4.78-4.1a3.29,3.29,0,0,1,.76-.06,2.36,2.36,0,0,1,2.21,1c.63,2.46-1.89,4.47-4,5a6.92,6.92,0,0,1-.94.13c-.7,0-1.14-.13-1.45-.13s-.32,0-.44.13c-1.26,1.57-1.83,2.64-1.83,3.46,0,1.07,1.07,1.51,2.65,1.51,4.41,0,13.23-3.46,15.75-6.05a1.14,1.14,0,0,1,.76-.25,1,1,0,0,1,.75.25.26.26,0,0,1,.06.13.34.34,0,0,1-.12.19C120.68,50.6,112.11,54,109,54.69a13.19,13.19,0,0,1-3.78.57c-1.58,0-3.15-.38-3.91-1.51a3,3,0,0,1-.38-1.58,6.48,6.48,0,0,1,1.39-3.65c.06-.13.25-.25.25-.32v-.06A.5.5,0,0,1,102.47,47.89Zm2.52.19h.31a4,4,0,0,0,3.85-3.53,1.94,1.94,0,0,0-.07-.63A15,15,0,0,0,105,48.08Z"/><path class="cls-1" d="M122.75,60.43c1.26,0-.19,1.19-.88,1.32-.12,0-.31.06-.44.06-1.26,0-2.14-1-2.2-2.89v-.19c0-2.71,1.44-7.38,2.26-10-.63-.13-1.13-.07-1.13-.51s.19-.82.63-.82c.94-.12,1.2-.81,1.45-1.57,2.14-6.3,7.31-19.91,11.09-25.46.75-1,1.39-2,2.71-2h.12c1.83.12,1.33,2.39.95,3.59-1.95,8.63-7.31,17.33-12.92,24.13-1.32,1.7-3.21,10.52-3.21,12.6,0,1.14.19,1.83.75,1.83h.13A3.24,3.24,0,0,1,122.75,60.43Zm2-16.64c.44-.19,4-6.24,4.54-6.93,2.64-4.41,7.31-15.69,6.87-17-.38.12-.45.31-.63.63C132.33,25.14,126.85,38.5,124.77,43.79Z"/><path class="cls-1" d="M127.67,55.7c-.63,0-1.14-.19-1.2-.75,0-4.54,5.23-10.27,7.56-12.17a2.88,2.88,0,0,1,1.77-.56c1.82,0,2.14,2,2.33,3.4a4,4,0,0,1,2.33-1.2c.88,0,1.2.19,1.2.51a1.83,1.83,0,0,1-.13.44c-.76,1.51-3.15,6.11-2.58,7.75a.54.54,0,0,0,.5.31.39.39,0,0,0,.25-.06c2.59-.94,10.65-5.92,11.91-5.92h.32c.31.06.38.12.38.19,0,.25-.82.69-1.45,1.07-1.77,1.07-8.32,5-11,5.42a6.05,6.05,0,0,1-1,.06c-1.57,0-2-.69-2-1.64a14,14,0,0,1,.95-3.46c.13-.19,0-.26-.25-.26a1.3,1.3,0,0,0-.95.38C135,50.91,130.19,55.7,127.67,55.7Zm.82-.94c1,0,6.61-5.74,6.93-6.12.94-1.32,1.07-5.48.12-5.29C128.74,49.65,128.49,54.06,128.49,54.76Z"/><path class="cls-1" d="M162.57,53.43a18.69,18.69,0,0,1,.45-3.71c-2.9,4.15-7.76,11-10.65,11.09-1.33,0-2.71-1-2.71-5l.06-1.07C150,50,152.37,43,153.63,39.57a3.19,3.19,0,0,0,.19-.82v-.19h-.57c-.69,0-1.45.07-2.21.07-2.27.18-4.53.25-6.8.31h-.44c-.89,0-1.14-.19-1.14-.38s.19-.25.32-.25a1.81,1.81,0,0,1,.56-.06c3.34-.19,6.75-.44,10.09-.63a1,1,0,0,0,1-.76c1-2.64,4.86-12.22,6.43-14.43a1.8,1.8,0,0,1,1.45-.69c.51,0,.88.25.88.69v.13c-.06.38-.19.69-.25,1.07a131.71,131.71,0,0,1-4.6,12.73,1.88,1.88,0,0,0-.31.88v.13c2.26-.13,4.47-.26,6.74-.32.44,0,1.2,0,2.14-.06a1,1,0,0,0,.32-.51c1-2.64,3.71-9.45,5.29-11.65a1.66,1.66,0,0,1,1.39-.7c.5,0,.88.26.88.7V25c0,1.33-3.15,9.9-3.78,11.41a1.25,1.25,0,0,0-.26.5c4-.12,9.27-.19,13.68-.19a54.89,54.89,0,0,1,8.76.38c.56.06,1,.19,1.38.25.19.07.32.19.32.32s-.19.38-.7.38c-.12,0-.25-.07-.44-.07a34.92,34.92,0,0,0-5.1-.31c-3.72,0-7.44.12-11.15.31-2.27.07-4.6.25-6.93.32-.51,0-.57.31-.76.63-1,2.2-2.08,4.41-3.15,6.61a5.93,5.93,0,0,1-1.32,2c-.51.32-1.26,5.42-1.26,6.18,0,1.26.37,3.9,2.07,3.9,3.28,0,11.66-7,12.86-10,.06-.13.12-.13.19-.13a.69.69,0,0,1,.5.63.52.52,0,0,1-.12.32c-2,3.34-8.89,9.76-13.05,10h-.44C163.2,58.47,162.57,56,162.57,53.43Zm-9.7,6c3.21,0,10.65-12.41,11.91-15.63l.06-.19a31.83,31.83,0,0,0,1.77-5.23v-.12c-.07-.25-.57-.32-1.2-.38l-.38.06a8.35,8.35,0,0,0-1.32.07c-2.08.12-3.72.18-5.67.25-.44.06-.51.38-.63.63l-3.22,6.61a5.79,5.79,0,0,1-1.32,2c-.76.5-1.45,7.94-1.45,9.07,0,1.33.19,2.78,1.39,2.84Zm3.34-22.12c.63-.56,2.9-6.3,3.21-7.87C158.23,32.14,157.09,34.66,156.21,37.3ZM169,36.92h.13a18.08,18.08,0,0,0,1.89-5.1A42.49,42.49,0,0,0,169,36.92Z"/><path class="cls-1" d="M178.58,47.89c0-.51.5-.63.82-.82.5-.25,2.89-3.66,4.78-4.1a3.29,3.29,0,0,1,.76-.06,2.36,2.36,0,0,1,2.21,1c.63,2.46-1.89,4.47-4,5a6.92,6.92,0,0,1-.94.13c-.7,0-1.14-.13-1.45-.13s-.32,0-.44.13c-1.26,1.57-1.83,2.64-1.83,3.46,0,1.07,1.07,1.51,2.65,1.51,4.41,0,13.23-3.46,15.75-6.05a1.14,1.14,0,0,1,.76-.25,1,1,0,0,1,.75.25.24.24,0,0,1,.07.13c0,.06-.07.13-.13.19-1.51,2.27-10.08,5.67-13.23,6.36a13.19,13.19,0,0,1-3.78.57c-1.58,0-3.15-.38-3.91-1.51a3,3,0,0,1-.38-1.58,6.48,6.48,0,0,1,1.39-3.65c.06-.13.25-.25.25-.32v-.06A.5.5,0,0,1,178.58,47.89Zm2.52.19h.31a4,4,0,0,0,3.85-3.53,1.94,1.94,0,0,0-.07-.63A15,15,0,0,0,181.1,48.08Z"/></g></g></svg>